<?xml version="1.0" standalone="no"?>
<!DOCTYPE svg PUBLIC "-//W3C//DTD SVG 20010904//EN"
 "http://www.w3.org/TR/2001/REC-SVG-20010904/DTD/svg10.dtd">
<svg version="1.0" xmlns="http://www.w3.org/2000/svg"
 width="2292.000000pt" height="556.000000pt" viewBox="0 0 2292.000000 556.000000"
 preserveAspectRatio="xMidYMid meet">

<g transform="translate(0.000000,556.000000) scale(0.100000,-0.100000)"
fill="#000000" stroke="none">
<path d="M2904 5056 c-81 -26 -234 -131 -352 -241 -64 -58 -227 -225 -230
-234 -1 -4 26 -16 61 -25 35 -10 88 -28 117 -42 28 -13 59 -24 68 -24 8 0 58
42 111 93 111 107 199 176 271 214 l51 26 26 -20 c34 -24 39 -46 52 -208 18
-225 54 -350 138 -477 113 -172 307 -277 568 -308 50 -6 196 -13 325 -16 l235
-4 62 -31 c62 -30 115 -81 175 -167 16 -23 27 -46 24 -51 -3 -5 -20 -11 -37
-15 -69 -13 -129 -93 -115 -152 9 -35 56 -81 92 -90 34 -9 140 17 337 81 75
25 143 45 152 45 17 0 90 -144 80 -160 -3 -5 -15 -10 -26 -10 -40 0 -269 -81
-299 -106 -59 -50 -59 -152 -1 -194 43 -30 93 -25 256 26 81 25 157 44 168 42
15 -2 30 -21 50 -62 15 -32 27 -65 25 -73 -2 -9 -48 -32 -111 -56 -67 -25
-119 -51 -137 -68 -52 -52 -42 -145 20 -187 43 -29 64 -26 204 29 159 61 154
62 199 -16 21 -37 37 -72 34 -78 -2 -7 -46 -29 -96 -51 -52 -22 -100 -49 -111
-63 -45 -57 -34 -137 24 -172 60 -37 75 -36 211 19 70 29 130 48 134 44 4 -5
33 -42 65 -82 125 -156 304 -298 484 -383 111 -53 163 -71 352 -120 254 -66
370 -124 424 -212 24 -40 29 -58 29 -112 -1 -91 -15 -109 -100 -129 -204 -46
-596 -73 -814 -57 -492 37 -918 136 -1234 287 -345 165 -646 403 -1070 844
-261 272 -413 413 -607 565 l-77 60 1 180 c1 275 -40 474 -138 672 -138 280
-342 479 -574 559 -118 41 -208 54 -383 54 -300 0 -637 -42 -637 -79 0 -18 93
-35 370 -71 144 -18 275 -41 284 -50 8 -8 -101 -218 -145 -281 -23 -33 -37
-35 -254 -49 -214 -14 -482 -37 -647 -55 -188 -22 -222 -41 -125 -70 61 -19
311 -48 552 -66 172 -12 207 -21 170 -41 -11 -6 -52 -43 -92 -81 -99 -95 -118
-141 -110 -263 9 -126 42 -211 140 -354 99 -143 413 -406 615 -515 34 -19 48
-31 40 -36 -7 -3 -112 -12 -233 -18 -267 -15 -714 -47 -848 -61 -155 -17 -189
-39 -94 -60 104 -23 429 -50 762 -65 426 -18 720 -36 778 -46 65 -11 208 -59
277 -93 44 -22 48 -22 241 -12 l196 11 -86 62 c-98 70 -260 168 -441 268 -500
276 -710 414 -870 575 -137 137 -212 251 -225 342 l-7 47 53 49 c30 27 88 78
129 113 41 35 85 74 98 86 34 34 48 28 66 -27 54 -166 219 -335 496 -510 211
-133 525 -347 635 -432 85 -66 230 -204 500 -475 403 -404 583 -562 820 -717
199 -131 481 -269 663 -326 245 -76 599 -143 902 -170 188 -17 573 -8 729 16
62 10 48 -5 -52 -54 -242 -119 -544 -170 -937 -159 -401 11 -717 77 -1050 219
-300 128 -508 271 -807 555 -76 72 -156 146 -178 163 -96 76 -266 147 -406
170 -85 14 -321 6 -924 -31 -529 -31 -785 -55 -804 -74 -13 -14 25 -28 110
-41 135 -20 636 -52 1074 -69 72 -2 202 -7 290 -11 197 -7 274 -22 379 -73 86
-42 123 -71 374 -301 225 -205 435 -351 650 -450 50 -24 92 -46 92 -50 0 -4
-116 -11 -257 -14 -1255 -32 -2116 -76 -2151 -111 -12 -12 19 -22 101 -33 144
-20 142 -20 737 -47 63 -3 144 -8 180 -10 67 -5 622 -21 1070 -30 627 -12 916
-16 1355 -17 386 -1 493 2 599 16 335 43 618 142 800 278 209 157 336 445 297
674 -24 137 -99 248 -225 332 -104 70 -223 112 -561 199 -40 11 -212 88 -265
120 -285 171 -615 670 -910 1378 -73 176 -197 498 -239 618 -82 239 -163 429
-198 463 -47 47 -98 59 -196 44 -299 -44 -503 -221 -555 -481 l-15 -81 -106 7
c-362 22 -511 92 -596 277 -34 74 -52 161 -65 317 -7 74 -18 159 -26 190 -24
92 -86 170 -168 213 -50 26 -174 34 -232 14z m1814 -768 c11 -29 66 -176 122
-327 55 -150 105 -283 111 -293 14 -26 3 -35 -47 -44 l-42 -6 -71 105 c-120
176 -240 271 -378 300 l-55 12 6 38 c15 92 88 185 181 230 68 33 75 35 116 36
35 1 38 -1 57 -51z m-2323 -214 c230 -138 376 -356 441 -656 15 -73 32 -308
21 -308 -3 0 -68 39 -144 86 -329 205 -455 316 -504 444 -38 101 -22 240 47
390 43 95 52 97 139 44z"/>
<path d="M3390 3637 c0 -7 225 -296 410 -527 167 -208 211 -270 205 -280 -4
-6 -18 -10 -33 -10 -15 -1 -92 -11 -171 -23 l-144 -23 49 -41 c27 -23 173
-139 325 -259 362 -287 742 -592 854 -687 49 -42 91 -74 94 -72 2 3 -14 24
-35 47 -22 24 -76 90 -121 148 -45 58 -130 167 -190 244 -228 293 -323 420
-317 425 5 6 60 15 247 42 48 7 87 17 86 23 -1 17 -539 444 -984 781 -93 71
-194 149 -222 173 -29 24 -53 42 -53 39z"/>
<path d="M21180 3599 c-377 -46 -610 -260 -610 -558 0 -103 19 -175 64 -246
83 -130 235 -214 496 -275 330 -77 386 -94 447 -131 92 -57 98 -186 12 -252
-64 -48 -130 -62 -289 -62 -207 0 -359 42 -535 146 -44 26 -83 45 -87 42 -8
-4 -40 -71 -118 -242 l-34 -73 24 -20 c36 -29 169 -94 261 -128 118 -44 265
-70 429 -77 307 -12 538 56 684 203 204 203 207 529 8 705 -94 83 -262 147
-557 214 -252 56 -344 100 -366 174 -74 249 416 334 779 135 34 -19 64 -34 66
-34 7 0 136 289 138 310 3 19 -10 29 -92 66 -209 95 -477 133 -720 103z"/>
<path d="M8167 3573 c-3 -5 -4 -415 -3 -913 l1 -905 212 -3 213 -2 2 262 3
263 190 3 191 2 85 -117 c47 -65 129 -184 182 -265 l97 -148 231 0 c181 0 229
3 223 13 -4 6 -92 139 -196 294 -103 155 -188 286 -188 290 0 4 22 20 49 35
205 115 311 309 311 565 0 240 -120 432 -340 543 -155 78 -255 90 -802 90
-251 0 -459 -3 -461 -7z m999 -376 c115 -53 167 -137 168 -267 0 -89 -22 -145
-79 -204 -84 -85 -187 -108 -470 -104 l-190 3 -2 290 c-1 160 0 296 2 303 4
11 55 13 257 10 l253 -3 61 -28z"/>
<path d="M10062 2973 c4 -597 4 -609 27 -687 106 -373 381 -565 807 -566 441
0 718 196 807 573 21 89 22 111 22 687 l0 595 -207 3 -208 2 -1 -492 c0 -271
-2 -533 -5 -583 -11 -199 -78 -319 -214 -384 -51 -24 -65 -26 -190 -26 -125 0
-139 2 -190 26 -105 49 -164 119 -201 240 -18 57 -19 101 -19 640 l0 579 -216
0 -215 0 3 -607z"/>
<path d="M12118 3573 c-3 -7 -2 -1586 1 -1756 l1 -67 208 2 207 3 2 544 c2
299 5 546 8 549 2 3 15 -8 27 -24 13 -16 81 -99 153 -185 71 -86 198 -239 280
-339 83 -101 168 -204 190 -229 22 -26 89 -108 150 -184 l110 -137 182 0 183
0 0 915 0 915 -210 0 -210 0 -1 -97 c0 -54 -1 -297 -2 -540 -2 -243 -5 -444
-8 -448 -3 -3 -104 115 -225 261 -120 147 -259 315 -309 373 -49 58 -130 156
-179 216 -50 61 -114 138 -144 173 l-54 62 -178 0 c-98 0 -180 -3 -182 -7z"/>
<path d="M14910 2665 l0 -915 680 0 680 0 0 175 0 175 -465 0 -465 0 0 718 c0
394 -3 727 -6 740 -6 22 -7 22 -215 22 l-209 0 0 -915z"/>
<path d="M17161 3538 c-11 -24 -47 -104 -81 -178 -34 -74 -109 -236 -165 -360
-132 -290 -364 -796 -403 -880 -92 -198 -162 -353 -162 -361 0 -5 98 -9 220
-9 l220 0 31 68 c17 37 57 126 89 197 l57 130 430 2 c236 1 434 -2 439 -5 6
-4 36 -68 66 -142 31 -74 68 -161 83 -192 l26 -58 225 0 c221 0 225 0 219 20
-4 11 -40 93 -82 183 -155 334 -328 710 -445 967 -181 400 -290 634 -301 648
-7 9 -65 12 -229 12 l-219 0 -18 -42z m276 -450 c83 -194 126 -295 183 -433
34 -82 64 -156 67 -162 4 -10 -57 -13 -286 -13 -160 0 -291 3 -291 8 0 14 284
672 290 672 3 0 20 -33 37 -72z"/>
<path d="M18650 2666 l0 -916 530 0 c306 0 572 4 628 11 244 26 416 120 492
269 72 142 67 337 -13 473 -33 56 -125 141 -188 173 -43 22 -64 44 -41 44 5 0
36 24 68 54 104 93 153 222 141 364 -15 176 -126 315 -305 382 -138 52 -150
53 -749 57 l-563 4 0 -915z m1033 571 c104 -33 157 -95 157 -185 0 -93 -31
-139 -120 -180 -54 -26 -58 -26 -347 -30 l-293 -4 0 204 c0 113 3 208 7 212 4
4 129 5 278 2 202 -3 282 -8 318 -19z m65 -730 c106 -28 172 -104 172 -198 0
-113 -47 -173 -161 -207 -69 -21 -94 -22 -375 -22 -233 0 -303 3 -306 13 -3 6
-3 98 -1 202 1 105 3 198 3 208 0 16 21 17 308 17 226 0 321 -4 360 -13z"/>
</g>
</svg>
